M48
INCH,TZ
T1C0.013
T2C0.014
T3C0.028
T4C0.040
T5C0.047
T6C0.062
T7C0.087
%
G90
G05
T1
X018220Y-015760
X018220Y-016430
X018230Y-019570
X018230Y-020240
X018835Y-016430
X018840Y-019570
X019340Y-014640
X019340Y-021350
X019440Y-015630
X019570Y-020370
X019810Y-018800
X019900Y-017320
X019905Y-016705
X020545Y-017450
X020590Y-014650
X020710Y-019630
X020846Y-021014
X020910Y-015820
X020960Y-016780
X021040Y-018520
X021340Y-017390
X021610Y-019540
X021620Y-019950
X021645Y-018455
X021700Y-016870
X021760Y-014780
X021890Y-016120
X022028Y-020551
X022100Y-016870
X022146Y-021358
X022300Y-018460
X022460Y-017250
X022480Y-019950
X022598Y-020354
X022680Y-017090
X022995Y-019475
X023005Y-019080
X023011Y-017577
X023011Y-018167
X023120Y-019872
X023160Y-016750
X023306Y-017872
X023434Y-016530
X023520Y-014880
X023601Y-017577
X023601Y-018167
X023710Y-019760
X023770Y-016350
X023907Y-021407
X023967Y-021142
X024010Y-019630
X024040Y-016930
X024080Y-018920
X024340Y-017200
X024520Y-016950
X024550Y-018240
X024740Y-016290
X024743Y-020664
X024743Y-021235
X024780Y-018960
X024940Y-020940
X025040Y-019340
X025060Y-015660
X025060Y-015940
X025060Y-019820
X025137Y-020664
X025137Y-021235
X025460Y-015870
X025900Y-020940
X025900Y-021300
X025910Y-020580
X025925Y-019823
X025960Y-019420
X026030Y-015620
X026180Y-014820
X026530Y-019480
X026690Y-015920
X026980Y-015920
X027180Y-021060
X027190Y-019885
X027220Y-019390
X027440Y-020000
X027660Y-019200
X027760Y-015510
X028170Y-018800
X028440Y-020240
X028700Y-019080
X028720Y-018680
X028790Y-018410
X029290Y-018840
X029400Y-020230
X029420Y-019340
X030090Y-018180
X030180Y-019180
X030780Y-019180
X030960Y-015820
X031070Y-015220
X031540Y-018440
X031590Y-014720
X031670Y-017820
X031800Y-018980
X031800Y-020940
X031840Y-015790
X032150Y-017800
X032180Y-019270
X032290Y-016630
X032360Y-015290
X032390Y-018260
X032460Y-019550
X032660Y-018380
X032670Y-016530
X032750Y-019670
X032840Y-019950
X032950Y-015970
X033000Y-014720
X033120Y-016760
X033140Y-017900
X033220Y-015690
X033310Y-020290
X033440Y-016240
X033480Y-015340
X033610Y-020480
X033620Y-017420
X033640Y-021330
X033760Y-015120
X033830Y-020760
X034100Y-016940
X034840Y-016460
X034950Y-019880
X035160Y-019670
X035240Y-016060
X035390Y-019440
X035560Y-014720
X035560Y-015180
X035640Y-019190
X036110Y-020740
X036230Y-021010
X036270Y-017540
X036280Y-018750
X036840Y-015240
X036890Y-019550
X037080Y-017970
X037140Y-019260
X037460Y-014640
X037490Y-018200
X038000Y-019610
X038100Y-014640
X038720Y-019600
X038730Y-015910
X038730Y-019030
X038750Y-014640
X038860Y-017440
X038860Y-017880
X039355Y-016910
X039520Y-018885
X039990Y-017040
X039990Y-019790
T2
X025581Y-016990
X025581Y-017640
X025581Y-018290
X026231Y-016990
X026231Y-017640
X026231Y-018290
X026881Y-016990
X026881Y-017640
X026881Y-018290
T3
X036700Y-020650
X036700Y-021150
X037200Y-020650
X037200Y-021150
X037700Y-020650
X037700Y-021150
X038200Y-020650
X038200Y-021150
X038700Y-020650
X038700Y-021150
T4
X028500Y-015000
X028500Y-016000
X029500Y-015000
X029500Y-016000
X030500Y-015000
X030500Y-016000
T5
X041017Y-017104
X041017Y-018896
T6
X020000Y-015000
X020000Y-021000
X040000Y-015000
X040000Y-021000
T7
X041017Y-015697
X041017Y-020303
T0
M30
