G04 (created by PCBNEW-RS274X (2010-12-28 BZR 2695)-testing) date Sun Apr 24 11:48:03 2011*
G01*
G70*
G90*
%MOIN*%
G04 Gerber Fmt 3.4, Leading zero omitted, Abs format*
%FSLAX34Y34*%
G04 APERTURE LIST*
%ADD10C,0.008000*%
G04 APERTURE END LIST*
G54D10*
X38166Y-19502D02*
X38166Y-19860D01*
X38186Y-19931D01*
X38224Y-19979D01*
X38281Y-20002D01*
X38319Y-20002D01*
X38033Y-19502D02*
X37804Y-19502D01*
X37919Y-20002D02*
X37919Y-19502D01*
X37690Y-19860D02*
X37499Y-19860D01*
X37728Y-20002D02*
X37595Y-19502D01*
X37461Y-20002D01*
X37118Y-19526D02*
X37156Y-19502D01*
X37213Y-19502D01*
X37271Y-19526D01*
X37309Y-19574D01*
X37328Y-19621D01*
X37347Y-19717D01*
X37347Y-19788D01*
X37328Y-19883D01*
X37309Y-19931D01*
X37271Y-19979D01*
X37213Y-20002D01*
X37175Y-20002D01*
X37118Y-19979D01*
X37099Y-19955D01*
X37099Y-19788D01*
X37175Y-19788D01*
X33514Y-20302D02*
X33514Y-19802D01*
X33361Y-19802D01*
X33323Y-19826D01*
X33304Y-19850D01*
X33285Y-19898D01*
X33285Y-19969D01*
X33304Y-20017D01*
X33323Y-20040D01*
X33361Y-20064D01*
X33514Y-20064D01*
X32885Y-20302D02*
X33019Y-20064D01*
X33114Y-20302D02*
X33114Y-19802D01*
X32961Y-19802D01*
X32923Y-19826D01*
X32904Y-19850D01*
X32885Y-19898D01*
X32885Y-19969D01*
X32904Y-20017D01*
X32923Y-20040D01*
X32961Y-20064D01*
X33114Y-20064D01*
X32638Y-19802D02*
X32561Y-19802D01*
X32523Y-19826D01*
X32485Y-19874D01*
X32466Y-19969D01*
X32466Y-20136D01*
X32485Y-20231D01*
X32523Y-20279D01*
X32561Y-20302D01*
X32638Y-20302D01*
X32676Y-20279D01*
X32714Y-20231D01*
X32733Y-20136D01*
X32733Y-19969D01*
X32714Y-19874D01*
X32676Y-19826D01*
X32638Y-19802D01*
X32085Y-19826D02*
X32123Y-19802D01*
X32180Y-19802D01*
X32238Y-19826D01*
X32276Y-19874D01*
X32295Y-19921D01*
X32314Y-20017D01*
X32314Y-20088D01*
X32295Y-20183D01*
X32276Y-20231D01*
X32238Y-20279D01*
X32180Y-20302D01*
X32142Y-20302D01*
X32085Y-20279D01*
X32066Y-20255D01*
X32066Y-20088D01*
X32142Y-20088D01*
X31666Y-20302D02*
X31800Y-20064D01*
X31895Y-20302D02*
X31895Y-19802D01*
X31742Y-19802D01*
X31704Y-19826D01*
X31685Y-19850D01*
X31666Y-19898D01*
X31666Y-19969D01*
X31685Y-20017D01*
X31704Y-20040D01*
X31742Y-20064D01*
X31895Y-20064D01*
X31514Y-20160D02*
X31323Y-20160D01*
X31552Y-20302D02*
X31419Y-19802D01*
X31285Y-20302D01*
X31152Y-20302D02*
X31152Y-19802D01*
X31018Y-20160D01*
X30885Y-19802D01*
X30885Y-20302D01*
X30557Y-16940D02*
X30423Y-16940D01*
X30366Y-17202D02*
X30557Y-17202D01*
X30557Y-16702D01*
X30366Y-16702D01*
X30233Y-16702D02*
X29966Y-17202D01*
X29966Y-16702D02*
X30233Y-17202D01*
X29814Y-17202D02*
X29814Y-16702D01*
X29661Y-16702D01*
X29623Y-16726D01*
X29604Y-16750D01*
X29585Y-16798D01*
X29585Y-16869D01*
X29604Y-16917D01*
X29623Y-16940D01*
X29661Y-16964D01*
X29814Y-16964D01*
X29433Y-17060D02*
X29242Y-17060D01*
X29471Y-17202D02*
X29338Y-16702D01*
X29204Y-17202D01*
X29071Y-17202D02*
X29071Y-16702D01*
X28842Y-17202D01*
X28842Y-16702D01*
X28652Y-17202D02*
X28652Y-16702D01*
X28557Y-16702D01*
X28499Y-16726D01*
X28461Y-16774D01*
X28442Y-16821D01*
X28423Y-16917D01*
X28423Y-16988D01*
X28442Y-17083D01*
X28461Y-17131D01*
X28499Y-17179D01*
X28557Y-17202D01*
X28652Y-17202D01*
X25666Y-15103D02*
X25666Y-15503D01*
X25859Y-15103D02*
X25859Y-15417D01*
X25837Y-15474D01*
X25795Y-15503D01*
X25730Y-15503D01*
X25687Y-15474D01*
X25666Y-15446D01*
X25452Y-15503D02*
X25452Y-14903D01*
X25452Y-15131D02*
X25409Y-15103D01*
X25323Y-15103D01*
X25280Y-15131D01*
X25259Y-15160D01*
X25238Y-15217D01*
X25238Y-15389D01*
X25259Y-15446D01*
X25280Y-15474D01*
X25323Y-15503D01*
X25409Y-15503D01*
X25452Y-15474D01*
X24873Y-15474D02*
X24916Y-15503D01*
X25002Y-15503D01*
X25045Y-15474D01*
X25066Y-15417D01*
X25066Y-15189D01*
X25045Y-15131D01*
X25002Y-15103D01*
X24916Y-15103D01*
X24873Y-15131D01*
X24852Y-15189D01*
X24852Y-15246D01*
X25066Y-15303D01*
X24659Y-15503D02*
X24659Y-15103D01*
X24659Y-15217D02*
X24637Y-15160D01*
X24616Y-15131D01*
X24573Y-15103D01*
X24530Y-15103D01*
X24444Y-15103D02*
X24273Y-15103D01*
X24380Y-14903D02*
X24380Y-15417D01*
X24358Y-15474D01*
X24316Y-15503D01*
X24273Y-15503D01*
X24059Y-15503D02*
X24101Y-15474D01*
X24123Y-15446D01*
X24144Y-15389D01*
X24144Y-15217D01*
X24123Y-15160D01*
X24101Y-15131D01*
X24059Y-15103D01*
X23994Y-15103D01*
X23951Y-15131D01*
X23930Y-15160D01*
X23909Y-15217D01*
X23909Y-15389D01*
X23930Y-15446D01*
X23951Y-15474D01*
X23994Y-15503D01*
X24059Y-15503D01*
X23652Y-15503D02*
X23694Y-15474D01*
X23716Y-15446D01*
X23737Y-15389D01*
X23737Y-15217D01*
X23716Y-15160D01*
X23694Y-15131D01*
X23652Y-15103D01*
X23587Y-15103D01*
X23544Y-15131D01*
X23523Y-15160D01*
X23502Y-15217D01*
X23502Y-15389D01*
X23523Y-15446D01*
X23544Y-15474D01*
X23587Y-15503D01*
X23652Y-15503D01*
X23373Y-15103D02*
X23202Y-15103D01*
X23309Y-14903D02*
X23309Y-15417D01*
X23287Y-15474D01*
X23245Y-15503D01*
X23202Y-15503D01*
X23052Y-15503D02*
X23052Y-14903D01*
X22859Y-15503D02*
X22859Y-15189D01*
X22880Y-15131D01*
X22923Y-15103D01*
X22988Y-15103D01*
X23030Y-15131D01*
X23052Y-15160D01*
X22645Y-15446D02*
X22623Y-15474D01*
X22645Y-15503D01*
X22666Y-15474D01*
X22645Y-15446D01*
X22645Y-15503D01*
X22452Y-15474D02*
X22409Y-15503D01*
X22324Y-15503D01*
X22281Y-15474D01*
X22259Y-15417D01*
X22259Y-15389D01*
X22281Y-15331D01*
X22324Y-15303D01*
X22388Y-15303D01*
X22431Y-15274D01*
X22452Y-15217D01*
X22452Y-15189D01*
X22431Y-15131D01*
X22388Y-15103D01*
X22324Y-15103D01*
X22281Y-15131D01*
X22131Y-15103D02*
X21960Y-15103D01*
X22067Y-15503D02*
X22067Y-14989D01*
X22045Y-14931D01*
X22003Y-14903D01*
X21960Y-14903D01*
X21810Y-15446D02*
X21788Y-15474D01*
X21810Y-15503D01*
X21831Y-15474D01*
X21810Y-15446D01*
X21810Y-15503D01*
X21596Y-15103D02*
X21596Y-15503D01*
X21596Y-15160D02*
X21574Y-15131D01*
X21532Y-15103D01*
X21467Y-15103D01*
X21424Y-15131D01*
X21403Y-15189D01*
X21403Y-15503D01*
X21017Y-15474D02*
X21060Y-15503D01*
X21146Y-15503D01*
X21189Y-15474D01*
X21210Y-15417D01*
X21210Y-15189D01*
X21189Y-15131D01*
X21146Y-15103D01*
X21060Y-15103D01*
X21017Y-15131D01*
X20996Y-15189D01*
X20996Y-15246D01*
X21210Y-15303D01*
X20867Y-15103D02*
X20696Y-15103D01*
X20803Y-14903D02*
X20803Y-15417D01*
X20781Y-15474D01*
X20739Y-15503D01*
X20696Y-15503D01*
X19200Y-14320D02*
X40800Y-14320D01*
X40800Y-21680D02*
X19200Y-21680D01*
X17900Y-20380D02*
X17900Y-15620D01*
X42100Y-20380D02*
X42100Y-15620D01*
X17900Y-20380D02*
X19200Y-21680D01*
X42100Y-20380D02*
X40800Y-21680D01*
X42100Y-15620D02*
X40800Y-14320D01*
X17900Y-15620D02*
X19200Y-14320D01*
X33968Y-19972D02*
X34732Y-19208D01*
X34732Y-19208D02*
X35072Y-19548D01*
X35072Y-19548D02*
X34308Y-20312D01*
X34308Y-20312D02*
X33968Y-19972D01*
X33488Y-19492D02*
X34252Y-18728D01*
X34252Y-18728D02*
X34592Y-19068D01*
X34592Y-19068D02*
X33828Y-19832D01*
X33828Y-19832D02*
X33488Y-19492D01*
X34928Y-19012D02*
X35692Y-18248D01*
X35692Y-18248D02*
X36032Y-18588D01*
X36032Y-18588D02*
X35268Y-19352D01*
X35268Y-19352D02*
X34928Y-19012D01*
X34448Y-18532D02*
X35212Y-17768D01*
X35212Y-17768D02*
X35552Y-18108D01*
X35552Y-18108D02*
X34788Y-18872D01*
X34788Y-18872D02*
X34448Y-18532D01*
X32908Y-18288D02*
X33672Y-19052D01*
X33672Y-19052D02*
X33332Y-19392D01*
X33332Y-19392D02*
X32568Y-18628D01*
X32568Y-18628D02*
X32908Y-18288D01*
X33388Y-17808D02*
X34152Y-18572D01*
X34152Y-18572D02*
X33812Y-18912D01*
X33812Y-18912D02*
X33048Y-18148D01*
X33048Y-18148D02*
X33388Y-17808D01*
X33868Y-17328D02*
X34632Y-18092D01*
X34632Y-18092D02*
X34292Y-18432D01*
X34292Y-18432D02*
X33528Y-17668D01*
X33528Y-17668D02*
X33868Y-17328D01*
X34348Y-16848D02*
X35112Y-17612D01*
X35112Y-17612D02*
X34772Y-17952D01*
X34772Y-17952D02*
X34008Y-17188D01*
X34008Y-17188D02*
X34348Y-16848D01*
X29607Y-21159D02*
X29832Y-21159D01*
X29719Y-21159D02*
X29719Y-20765D01*
X29757Y-20822D01*
X29794Y-20859D01*
X29832Y-20878D01*
M02*
